<svg id="visual" viewBox="0 0 1920 1080" width="1920" height="1080" xmlns="http://www.w3.org/2000/svg" xmlns:xlink="http://www.w3.org/1999/xlink" version="1.1"><rect x="0" y="0" width="1920" height="1080" fill="#14213d"></rect><path d="M0 411L45.7 416.7C91.3 422.3 182.7 433.7 274.2 418.7C365.7 403.7 457.3 362.3 548.8 351.2C640.3 340 731.7 359 823 362.7C914.3 366.3 1005.7 354.7 1097 353.7C1188.3 352.7 1279.7 362.3 1371.2 379C1462.7 395.7 1554.3 419.3 1645.8 426.2C1737.3 433 1828.7 423 1874.3 418L1920 413L1920 0L1874.3 0C1828.7 0 1737.3 0 1645.8 0C1554.3 0 1462.7 0 1371.2 0C1279.7 0 1188.3 0 1097 0C1005.7 0 914.3 0 823 0C731.7 0 640.3 0 548.8 0C457.3 0 365.7 0 274.2 0C182.7 0 91.3 0 45.7 0L0 0Z" fill="#14213d"></path><path d="M0 220L45.7 239.3C91.3 258.7 182.7 297.3 274.2 298.2C365.7 299 457.3 262 548.8 245.5C640.3 229 731.7 233 823 255.8C914.3 278.7 1005.7 320.3 1097 323C1188.3 325.7 1279.7 289.3 1371.2 265.2C1462.7 241 1554.3 229 1645.8 223.2C1737.3 217.3 1828.7 217.7 1874.3 217.8L1920 218L1920 0L1874.3 0C1828.7 0 1737.3 0 1645.8 0C1554.3 0 1462.7 0 1371.2 0C1279.7 0 1188.3 0 1097 0C1005.7 0 914.3 0 823 0C731.7 0 640.3 0 548.8 0C457.3 0 365.7 0 274.2 0C182.7 0 91.3 0 45.7 0L0 0Z" fill="#274b5f"></path><path d="M0 176L45.7 180.5C91.3 185 182.7 194 274.2 202.3C365.7 210.7 457.3 218.3 548.8 225.8C640.3 233.3 731.7 240.7 823 242C914.3 243.3 1005.7 238.7 1097 227.5C1188.3 216.3 1279.7 198.7 1371.2 195.8C1462.7 193 1554.3 205 1645.8 218C1737.3 231 1828.7 245 1874.3 252L1920 259L1920 0L1874.3 0C1828.7 0 1737.3 0 1645.8 0C1554.3 0 1462.7 0 1371.2 0C1279.7 0 1188.3 0 1097 0C1005.7 0 914.3 0 823 0C731.7 0 640.3 0 548.8 0C457.3 0 365.7 0 274.2 0C182.7 0 91.3 0 45.7 0L0 0Z" fill="#50767c"></path><path d="M0 146L45.7 156.3C91.3 166.7 182.7 187.3 274.2 179.8C365.7 172.3 457.3 136.7 548.8 123.7C640.3 110.7 731.7 120.3 823 120.5C914.3 120.7 1005.7 111.3 1097 112.7C1188.3 114 1279.7 126 1371.2 139.2C1462.7 152.3 1554.3 166.7 1645.8 160.7C1737.3 154.7 1828.7 128.3 1874.3 115.2L1920 102L1920 0L1874.3 0C1828.7 0 1737.3 0 1645.8 0C1554.3 0 1462.7 0 1371.2 0C1279.7 0 1188.3 0 1097 0C1005.7 0 914.3 0 823 0C731.7 0 640.3 0 548.8 0C457.3 0 365.7 0 274.2 0C182.7 0 91.3 0 45.7 0L0 0Z" fill="#86a19b"></path><path d="M0 48L45.7 56C91.3 64 182.7 80 274.2 83.7C365.7 87.3 457.3 78.7 548.8 75.3C640.3 72 731.7 74 823 80C914.3 86 1005.7 96 1097 103.2C1188.3 110.3 1279.7 114.7 1371.2 114.8C1462.7 115 1554.3 111 1645.8 101.2C1737.3 91.3 1828.7 75.7 1874.3 67.8L1920 60L1920 0L1874.3 0C1828.7 0 1737.3 0 1645.8 0C1554.3 0 1462.7 0 1371.2 0C1279.7 0 1188.3 0 1097 0C1005.7 0 914.3 0 823 0C731.7 0 640.3 0 548.8 0C457.3 0 365.7 0 274.2 0C182.7 0 91.3 0 45.7 0L0 0Z" fill="#c1cdc1"></path></svg>