<svg id="visual" viewBox="0 0 1920 1080" width="1920" height="1080" xmlns="http://www.w3.org/2000/svg" xmlns:xlink="http://www.w3.org/1999/xlink" version="1.1"><rect x="0" y="0" width="1920" height="1080" fill="#fbfbf2"></rect><path d="M0 823L32 829.5C64 836 128 849 192 862.7C256 876.3 320 890.7 384 884.8C448 879 512 853 576 844.2C640 835.3 704 843.7 768 847.5C832 851.3 896 850.7 960 856C1024 861.3 1088 872.7 1152 880.8C1216 889 1280 894 1344 898.3C1408 902.7 1472 906.3 1536 900.5C1600 894.7 1664 879.3 1728 873.5C1792 867.7 1856 871.3 1888 873.2L1920 875L1920 1081L1888 1081C1856 1081 1792 1081 1728 1081C1664 1081 1600 1081 1536 1081C1472 1081 1408 1081 1344 1081C1280 1081 1216 1081 1152 1081C1088 1081 1024 1081 960 1081C896 1081 832 1081 768 1081C704 1081 640 1081 576 1081C512 1081 448 1081 384 1081C320 1081 256 1081 192 1081C128 1081 64 1081 32 1081L0 1081Z" fill="#14213d"></path><path d="M0 859L32 857.3C64 855.7 128 852.3 192 861.7C256 871 320 893 384 899.2C448 905.3 512 895.7 576 885.3C640 875 704 864 768 869.7C832 875.3 896 897.7 960 911C1024 924.3 1088 928.7 1152 917C1216 905.3 1280 877.7 1344 876.5C1408 875.3 1472 900.7 1536 900.7C1600 900.7 1664 875.3 1728 872.2C1792 869 1856 888 1888 897.5L1920 907L1920 1081L1888 1081C1856 1081 1792 1081 1728 1081C1664 1081 1600 1081 1536 1081C1472 1081 1408 1081 1344 1081C1280 1081 1216 1081 1152 1081C1088 1081 1024 1081 960 1081C896 1081 832 1081 768 1081C704 1081 640 1081 576 1081C512 1081 448 1081 384 1081C320 1081 256 1081 192 1081C128 1081 64 1081 32 1081L0 1081Z" fill="#274b5f"></path><path d="M0 964L32 960.3C64 956.7 128 949.3 192 938.7C256 928 320 914 384 910.5C448 907 512 914 576 924.3C640 934.7 704 948.3 768 944C832 939.7 896 917.3 960 907.7C1024 898 1088 901 1152 910.7C1216 920.3 1280 936.7 1344 938.8C1408 941 1472 929 1536 919.2C1600 909.3 1664 901.7 1728 908.7C1792 915.7 1856 937.3 1888 948.2L1920 959L1920 1081L1888 1081C1856 1081 1792 1081 1728 1081C1664 1081 1600 1081 1536 1081C1472 1081 1408 1081 1344 1081C1280 1081 1216 1081 1152 1081C1088 1081 1024 1081 960 1081C896 1081 832 1081 768 1081C704 1081 640 1081 576 1081C512 1081 448 1081 384 1081C320 1081 256 1081 192 1081C128 1081 64 1081 32 1081L0 1081Z" fill="#50767c"></path><path d="M0 992L32 986.3C64 980.7 128 969.3 192 967.7C256 966 320 974 384 971.8C448 969.7 512 957.3 576 948.5C640 939.7 704 934.3 768 938.7C832 943 896 957 960 960C1024 963 1088 955 1152 949.2C1216 943.3 1280 939.7 1344 941.7C1408 943.7 1472 951.3 1536 950.8C1600 950.3 1664 941.7 1728 945.7C1792 949.7 1856 966.3 1888 974.7L1920 983L1920 1081L1888 1081C1856 1081 1792 1081 1728 1081C1664 1081 1600 1081 1536 1081C1472 1081 1408 1081 1344 1081C1280 1081 1216 1081 1152 1081C1088 1081 1024 1081 960 1081C896 1081 832 1081 768 1081C704 1081 640 1081 576 1081C512 1081 448 1081 384 1081C320 1081 256 1081 192 1081C128 1081 64 1081 32 1081L0 1081Z" fill="#86a29b"></path><path d="M0 985L32 990C64 995 128 1005 192 1011.7C256 1018.3 320 1021.7 384 1015.5C448 1009.3 512 993.7 576 987.2C640 980.7 704 983.3 768 982.2C832 981 896 976 960 977.7C1024 979.3 1088 987.7 1152 994.7C1216 1001.7 1280 1007.3 1344 1009.7C1408 1012 1472 1011 1536 1012.7C1600 1014.3 1664 1018.7 1728 1016.2C1792 1013.7 1856 1004.3 1888 999.7L1920 995L1920 1081L1888 1081C1856 1081 1792 1081 1728 1081C1664 1081 1600 1081 1536 1081C1472 1081 1408 1081 1344 1081C1280 1081 1216 1081 1152 1081C1088 1081 1024 1081 960 1081C896 1081 832 1081 768 1081C704 1081 640 1081 576 1081C512 1081 448 1081 384 1081C320 1081 256 1081 192 1081C128 1081 64 1081 32 1081L0 1081Z" fill="#c1cdc1"></path><path d="M0 1052L32 1050.3C64 1048.7 128 1045.3 192 1040C256 1034.7 320 1027.3 384 1026.2C448 1025 512 1030 576 1032.8C640 1035.7 704 1036.3 768 1036.3C832 1036.3 896 1035.7 960 1034.8C1024 1034 1088 1033 1152 1034.2C1216 1035.3 1280 1038.7 1344 1037.2C1408 1035.7 1472 1029.3 1536 1030.2C1600 1031 1664 1039 1728 1039.2C1792 1039.3 1856 1031.7 1888 1027.8L1920 1024L1920 1081L1888 1081C1856 1081 1792 1081 1728 1081C1664 1081 1600 1081 1536 1081C1472 1081 1408 1081 1344 1081C1280 1081 1216 1081 1152 1081C1088 1081 1024 1081 960 1081C896 1081 832 1081 768 1081C704 1081 640 1081 576 1081C512 1081 448 1081 384 1081C320 1081 256 1081 192 1081C128 1081 64 1081 32 1081L0 1081Z" fill="#fbfbf2"></path></svg>